<svg xmlns="http://www.w3.org/2000/svg" xmlns:xlink="http://www.w3.org/1999/xlink" width="100%" viewBox="0 0 260 260" height="150" xmlns:v="https://vecta.io/nano"><path d="M178 261H1V1h260v260h-83m20.921-229.532c-.315-.079-.63-.157-1.872-.358-19.332.041-38.664.081-58.561-.023-.071.323-.142.646-.315 1.894v34.714h60.664l.084-36.227M61.488 47.074c-.108.315-.216.63-.477 1.869v58.721h61.826l.084-60.197c-.315-.079-.63-.157-1.872-.358-19.674.041-39.348.082-59.562-.035m137.433 121.394c-.315-.079-.63-.157-1.872-.358-19.332.041-38.664.081-58.561-.023-.071.323-.142.646-.315 1.894v59.708h60.664l.084-61.221m-60.433-86.381c-.071.323-.142.646-.315 1.894v69.711h96.664l.084-71.224c-.315-.079-.63-.157-1.872-.358-31.332.041-62.664.081-94.561-.023M121.05 123.11c-31.332.041-62.664.081-94.561-.023-.071.323-.142.646-.315 1.894v94.708h96.664l.084-96.221c-.315-.079-.63-.157-1.872-.358z"/><path d="M122.838 124.024v95.665H26.174l.246-95.232c.478-.701.607-.934.633-1.225l94.537.131c.732.465.968.601 1.247.661zm112-41v70.668h-96.664l.246-70.236c.478-.701.607-.934.633-1.225l94.537.131c.732.465.968.601 1.247.661zm-95.785 85.208l58.537.131c.732.465.968.601 1.247.661v60.665h-60.664l.246-60.232c.478-.701.607-.934.633-1.225zM122.838 48.024v59.641H61.012l.27-59.255c.536-.669.695-.883.746-1.177l59.563.13c.732.465.968.601 1.247.661zm16.215-16.792l58.537.131c.732.465.968.601 1.247.661v35.671h-60.664l.246-35.238c.478-.701.607-.934.633-1.225z" fill="#fff"/><use xlink:href="#B" fill="#d5d5d5"/><use xlink:href="#C" fill="silver"/><use xlink:href="#B" x="-76" y="-45" fill="#d5d5d5"/><use xlink:href="#C" x="-112" y="-45" fill="silver"/><use xlink:href="#B" x="36" y="-86" fill="#d5d5d5"/><use xlink:href="#C" y="-86" fill="silver"/><g fill="#d5d5d5"><use xlink:href="#B" x="-76" y="-121"/><path d="M61.758 47.153c.218.373.059.587-.4.794-.085-.243.023-.558.4-.794z"/><use xlink:href="#B" y="-137"/></g><use xlink:href="#C" y="-137" fill="silver"/><defs ><path id="B" d="M198.88 168.746c-.321.218-.557.082-.826-.322.238-.113.553-.035.826.322z"/><path id="C" d="M138.771 168.159c.256.363.127.596-.3.834-.124-.261-.053-.584.3-.834z"/></defs></svg>